<svg width="32" height="32" viewBox="0 0 32 32" fill="none" xmlns="http://www.w3.org/2000/svg">
<path d="M11.5 8.71L16 11.31L20.5 8.71M11.5 24.29V19.1L7 16.5M25 16.5L20.5 19.1V24.29M7.27 11.46L16 16.51L24.73 11.46M16 26.58V16.5M25 20.5V12.5C24.9996 12.1493 24.9071 11.8048 24.7315 11.5012C24.556 11.1975 24.3037 10.9454 24 10.77L17 6.77C16.696 6.59446 16.3511 6.50205 16 6.50205C15.6489 6.50205 15.304 6.59446 15 6.77L8 10.77C7.69626 10.9454 7.44398 11.1975 7.26846 11.5012C7.09294 11.8048 7.00036 12.1493 7 12.5V20.5C7.00036 20.8507 7.09294 21.1952 7.26846 21.4988C7.44398 21.8025 7.69626 22.0546 8 22.23L15 26.23C15.304 26.4055 15.6489 26.498 16 26.498C16.3511 26.498 16.696 26.4055 17 26.23L24 22.23C24.3037 22.0546 24.556 21.8025 24.7315 21.4988C24.9071 21.1952 24.9996 20.8507 25 20.5Z" stroke="#1E1E1E" stroke-width="1.6" stroke-linecap="round" stroke-linejoin="round"/>
</svg>
